<svg xmlns="http://www.w3.org/2000/svg" viewBox="0 0 760 440" width="760" height="440" font-family="Helvetica, Arial, sans-serif"><rect width="100%" height="100%" fill="#ffffff"/><text x="70" y="22" font-size="15" font-weight="bold" fill="#1d2333">Rank-frequency curves of the four pre-processing conditions</text><line x1="70" x2="740" y1="364.0" y2="364.0" stroke="#e5e7ef"/><text x="62" y="368.0" font-size="11" text-anchor="end" fill="#6b7280">1</text><line x1="70" x2="740" y1="288.2" y2="288.2" stroke="#e5e7ef"/><text x="62" y="292.2" font-size="11" text-anchor="end" fill="#6b7280">10</text><line x1="70" x2="740" y1="212.4" y2="212.4" stroke="#e5e7ef"/><text x="62" y="216.4" font-size="11" text-anchor="end" fill="#6b7280">100</text><line x1="70" x2="740" y1="136.6" y2="136.6" stroke="#e5e7ef"/><text x="62" y="140.6" font-size="11" text-anchor="end" fill="#6b7280">1,000</text><line x1="70" x2="740" y1="60.8" y2="60.8" stroke="#e5e7ef"/><text x="62" y="64.8" font-size="11" text-anchor="end" fill="#6b7280">10,000</text><line x1="70.0" x2="70.0" y1="40" y2="364" stroke="#e5e7ef"/><text x="70.0" y="380" font-size="11" text-anchor="middle" fill="#6b7280">1</text><line x1="215.4" x2="215.4" y1="40" y2="364" stroke="#e5e7ef"/><text x="215.4" y="380" font-size="11" text-anchor="middle" fill="#6b7280">10</text><line x1="360.8" x2="360.8" y1="40" y2="364" stroke="#e5e7ef"/><text x="360.8" y="380" font-size="11" text-anchor="middle" fill="#6b7280">100</text><line x1="506.2" x2="506.2" y1="40" y2="364" stroke="#e5e7ef"/><text x="506.2" y="380" font-size="11" text-anchor="middle" fill="#6b7280">1,000</text><line x1="651.6" x2="651.6" y1="40" y2="364" stroke="#e5e7ef"/><text x="651.6" y="380" font-size="11" text-anchor="middle" fill="#6b7280">10,000</text><text x="405.0" y="400" font-size="12" text-anchor="middle" fill="#6b7280">Rank r (log scale)</text><text transform="translate(16 202.0) rotate(-90)" font-size="12" text-anchor="middle" fill="#6b7280">Collection frequency CF (log scale)</text><path d="M70.0 55.7 L113.8 74.6 L139.4 75.2 L157.5 80.2 L171.6 87.5 L183.1 93.6 L192.9 95.2 L201.3 106.9 L208.8 115.2 L215.4 119.1 L221.4 123.5 L226.9 125.4 L232.0 129.0 L236.7 130.2 L241.0 130.2 L245.1 132.5 L248.9 132.6 L252.5 134.1 L255.9 135.2 L259.2 136.4 L262.3 140.1 L265.2 140.7 L268.0 141.6 L270.7 141.6 L273.3 142.0 L275.7 142.6 L278.1 142.9 L280.4 143.9 L282.6 144.7 L284.8 145.2 L286.9 145.6 L288.9 146.0 L290.8 146.0 L292.7 146.1 L294.5 147.0 L296.3 147.3 L298.0 147.5 L299.7 148.3 L301.3 149.9 L302.9 151.8 L304.5 151.8 L306.0 154.1 L307.5 154.6 L309.0 154.7 L310.4 154.7 L311.8 154.7 L313.1 155.3 L314.5 155.7 L315.8 157.0 L317.0 157.3 L318.3 158.4 L319.5 159.8 L320.7 159.9 L321.9 160.5 L323.1 161.1 L324.2 161.5 L325.3 161.9 L326.4 162.0 L327.5 162.6 L328.6 162.6 L330.6 163.7 L332.6 164.3 L334.6 166.5 L336.5 166.8 L338.3 167.1 L340.9 168.8 L342.6 169.9 L345.1 170.4 L346.7 172.0 L349.0 172.6 L351.3 173.6 L353.5 174.1 L355.5 174.9 L357.6 176.3 L359.5 177.9 L361.4 178.7 L363.3 179.6 L365.7 179.9 L368.0 181.2 L369.6 181.8 L371.8 183.0 L373.9 184.5 L375.9 185.7 L378.3 187.0 L380.2 188.3 L382.5 189.6 L384.3 190.2 L386.4 190.9 L388.5 192.1 L390.5 193.2 L392.8 193.6 L394.7 194.0 L396.9 194.5 L399.0 196.1 L401.0 196.5 L403.3 197.7 L405.2 198.6 L407.4 199.3 L409.4 199.9 L411.5 200.6 L413.7 202.0 L415.6 202.5 L417.7 203.2 L419.9 204.0 L421.9 204.5 L424.0 205.3 L426.1 205.8 L428.0 207.2 L430.2 208.1 L432.3 208.9 L434.5 209.9 L436.4 211.1 L438.5 212.7 L440.6 213.4 L442.7 214.4 L444.8 215.1 L446.9 216.6 L449.0 217.7 L451.0 218.9 L453.1 219.7 L455.2 221.4 L457.3 222.3 L459.3 223.2 L461.4 224.1 L463.6 225.6 L465.6 226.1 L467.7 227.1 L469.7 228.1 L471.8 229.2 L474.0 229.8 L476.0 231.5 L478.0 232.1 L480.2 233.3 L482.2 233.9 L484.3 235.2 L486.3 235.9 L488.5 237.2 L490.5 238.0 L492.6 238.7 L494.7 240.2 L496.8 240.9 L498.9 242.6 L501.0 244.2 L503.0 245.1 L505.1 246.0 L507.2 246.9 L509.2 247.9 L511.3 249.9 L513.4 250.9 L515.5 252.0 L517.6 253.1 L519.6 254.3 L521.7 255.5 L523.8 256.7 L525.9 258.0 L528.0 258.0 L530.0 259.4 L532.1 260.8 L534.2 262.2 L536.3 263.8 L538.3 265.4 L540.4 265.4 L542.5 267.1 L544.5 268.8 L546.6 268.8 L548.7 270.7 L550.8 272.7 L552.9 272.7 L555.0 274.8 L557.0 277.1 L559.1 277.1 L561.2 279.6 L563.3 279.6 L565.4 282.2 L567.4 282.2 L569.5 285.1 L571.6 285.1 L573.6 288.2 L575.7 288.2 L577.8 291.7 L579.9 291.7 L582.0 291.7 L584.0 295.5 L586.1 295.5 L588.2 295.5 L590.3 299.9 L592.4 299.9 L594.4 299.9 L596.5 305.0 L598.6 305.0 L600.7 305.0 L602.7 305.0 L604.8 311.0 L606.9 311.0 L609.0 311.0 L611.1 311.0 L613.1 311.0 L615.2 318.4 L617.3 318.4 L619.4 318.4 L621.4 318.4 L623.5 318.4 L625.6 327.8 L627.7 327.8 L629.7 327.8 L631.8 327.8 L633.9 327.8 L636.0 327.8 L638.1 327.8 L640.1 327.8 L642.2 341.2 L644.3 341.2 L646.4 341.2 L648.4 341.2 L650.5 341.2 L652.6 341.2 L654.7 341.2 L656.7 341.2 L658.8 341.2 L660.9 341.2 L663.0 341.2 L665.1 364.0 L667.1 364.0 L669.2 364.0 L671.3 364.0 L673.4 364.0 L675.4 364.0 L677.5 364.0 L679.6 364.0 L681.7 364.0 L683.8 364.0 L685.8 364.0 L687.9 364.0 L690.0 364.0 L692.1 364.0 L694.1 364.0 L696.2 364.0 L698.3 364.0 L700.4 364.0 L702.5 364.0 L704.5 364.0 L706.6 364.0 L708.7 364.0 L710.8 364.0 L712.8 364.0 L714.9 364.0 L717.0 364.0 L719.1 364.0 L720.5 364.0" fill="none" stroke="#2a78d6" stroke-width="2" stroke-linejoin="round"/><line x1="70" x2="90" y1="426" y2="426" stroke="#2a78d6" stroke-width="3"/><text x="96" y="430" font-size="12" fill="#1d2333">A Basic</text><path d="M70.0 55.4 L113.8 74.4 L139.4 75.2 L157.5 80.0 L171.6 85.5 L183.1 87.4 L192.9 92.8 L201.3 94.6 L208.8 97.0 L215.4 103.5 L221.4 106.8 L226.9 115.1 L232.0 119.1 L236.7 119.2 L241.0 121.6 L245.1 124.0 L248.9 128.6 L252.5 129.0 L255.9 129.5 L259.2 130.0 L262.3 131.9 L265.2 132.3 L268.0 132.4 L270.7 133.2 L273.3 134.0 L275.7 134.1 L278.1 134.2 L280.4 135.6 L282.6 136.1 L284.8 137.2 L286.9 137.2 L288.9 138.2 L290.8 139.7 L292.7 139.9 L294.5 141.2 L296.3 141.3 L298.0 141.7 L299.7 143.8 L301.3 144.3 L302.9 144.5 L304.5 144.6 L306.0 145.1 L307.5 145.2 L309.0 145.2 L310.4 145.7 L311.8 146.0 L313.1 147.0 L314.5 147.2 L315.8 147.3 L317.0 148.0 L318.3 148.5 L319.5 149.2 L320.7 149.5 L321.9 150.2 L323.1 151.3 L324.2 152.5 L325.3 153.9 L326.4 154.1 L327.5 154.4 L328.6 154.6 L330.6 155.5 L332.6 156.6 L334.6 157.0 L336.5 158.0 L338.3 158.4 L340.9 160.4 L342.6 161.1 L345.1 162.9 L346.7 163.5 L349.0 163.8 L351.3 164.1 L353.5 166.7 L355.5 167.0 L357.6 167.7 L359.5 168.4 L361.4 169.0 L363.3 169.9 L365.7 171.9 L368.0 172.4 L369.6 173.3 L371.8 174.4 L373.9 175.2 L375.9 176.2 L378.3 177.7 L380.2 178.5 L382.5 179.3 L384.3 179.7 L386.4 180.4 L388.5 181.3 L390.5 182.1 L392.8 183.7 L394.7 184.1 L396.9 184.8 L399.0 185.8 L401.0 186.6 L403.3 187.2 L405.2 188.4 L407.4 189.1 L409.4 189.9 L411.5 190.6 L413.7 191.3 L415.6 192.0 L417.7 192.9 L419.9 193.8 L421.9 194.7 L424.0 195.9 L426.1 197.1 L428.0 198.4 L430.2 199.7 L432.3 200.6 L434.5 201.5 L436.4 202.5 L438.5 203.0 L440.6 203.7 L442.7 205.0 L444.8 206.4 L446.9 207.5 L449.0 208.1 L451.0 209.2 L453.1 210.2 L455.2 211.7 L457.3 213.1 L459.3 214.1 L461.4 215.5 L463.6 216.6 L465.6 217.4 L467.7 218.5 L469.7 219.7 L471.8 220.6 L474.0 221.9 L476.0 223.2 L478.0 224.1 L480.2 225.6 L482.2 226.1 L484.3 227.6 L486.3 228.7 L488.5 230.3 L490.5 230.9 L492.6 232.7 L494.7 233.9 L496.8 235.2 L498.9 235.9 L501.0 237.2 L503.0 238.0 L505.1 238.7 L507.2 240.2 L509.2 240.9 L511.3 243.4 L513.4 244.2 L515.5 246.0 L517.6 246.9 L519.6 247.9 L521.7 249.9 L523.8 250.9 L525.9 252.0 L528.0 254.3 L530.0 255.5 L532.1 256.7 L534.2 258.0 L536.3 259.4 L538.3 260.8 L540.4 262.2 L542.5 263.8 L544.5 265.4 L546.6 265.4 L548.7 267.1 L550.8 268.8 L552.9 270.7 L555.0 272.7 L557.0 274.8 L559.1 277.1 L561.2 277.1 L563.3 279.6 L565.4 282.2 L567.4 282.2 L569.5 285.1 L571.6 285.1 L573.6 288.2 L575.7 288.2 L577.8 291.7 L579.9 291.7 L582.0 295.5 L584.0 295.5 L586.1 299.9 L588.2 299.9 L590.3 299.9 L592.4 305.0 L594.4 305.0 L596.5 305.0 L598.6 311.0 L600.7 311.0 L602.7 311.0 L604.8 311.0 L606.9 318.4 L609.0 318.4 L611.1 318.4 L613.1 318.4 L615.2 327.8 L617.3 327.8 L619.4 327.8 L621.4 327.8 L623.5 327.8 L625.6 327.8 L627.7 341.2 L629.7 341.2 L631.8 341.2 L633.9 341.2 L636.0 341.2 L638.1 341.2 L640.1 341.2 L642.2 341.2 L644.3 364.0 L646.4 364.0 L648.4 364.0 L650.5 364.0 L652.6 364.0 L654.7 364.0 L656.7 364.0 L658.8 364.0 L660.9 364.0 L663.0 364.0 L665.1 364.0 L667.1 364.0 L669.2 364.0 L669.7 364.0" fill="none" stroke="#eb6834" stroke-width="2" stroke-linejoin="round"/><line x1="156.2" x2="176.2" y1="426" y2="426" stroke="#eb6834" stroke-width="3"/><text x="182.2" y="430" font-size="12" fill="#1d2333">B Punctuation removed</text><path d="M70.0 85.5 L113.8 97.0 L139.4 103.5 L157.5 119.2 L171.6 121.6 L183.1 128.6 L192.9 129.0 L201.3 131.9 L208.8 133.2 L215.4 134.1 L221.4 134.2 L226.9 135.6 L232.0 136.1 L236.7 137.2 L241.0 137.2 L245.1 138.2 L248.9 139.7 L252.5 141.2 L255.9 141.7 L259.2 143.8 L262.3 144.3 L265.2 144.5 L268.0 144.6 L270.7 145.1 L273.3 145.2 L275.7 145.2 L278.1 147.2 L280.4 147.3 L282.6 148.0 L284.8 148.5 L286.9 149.2 L288.9 149.5 L290.8 150.2 L292.7 152.5 L294.5 153.9 L296.3 154.1 L298.0 154.4 L299.7 154.6 L301.3 155.5 L302.9 156.4 L304.5 157.0 L306.0 157.0 L307.5 157.7 L309.0 158.0 L310.4 158.4 L311.8 159.6 L313.1 160.3 L314.5 160.5 L315.8 161.1 L317.0 162.5 L318.3 162.9 L319.5 163.0 L320.7 163.8 L321.9 163.8 L323.1 163.8 L324.2 163.9 L325.3 165.4 L326.4 166.7 L327.5 166.9 L328.6 167.0 L330.6 167.7 L332.6 167.8 L334.6 168.6 L336.5 169.0 L338.3 169.7 L340.9 170.6 L342.6 171.9 L345.1 172.2 L346.7 172.4 L349.0 173.9 L351.3 174.7 L353.5 175.5 L355.5 177.4 L357.6 178.5 L359.5 178.5 L361.4 179.1 L363.3 179.6 L365.7 180.3 L368.0 181.1 L369.6 182.1 L371.8 183.4 L373.9 184.0 L375.9 184.4 L378.3 185.4 L380.2 185.8 L382.5 186.1 L384.3 186.7 L386.4 187.8 L388.5 188.4 L390.5 189.1 L392.8 189.7 L394.7 190.1 L396.9 190.9 L399.0 191.8 L401.0 192.5 L403.3 193.4 L405.2 194.2 L407.4 195.3 L409.4 196.7 L411.5 197.3 L413.7 198.6 L415.6 199.5 L417.7 200.4 L419.9 201.3 L421.9 202.0 L424.0 202.8 L426.1 203.2 L428.0 203.7 L430.2 204.8 L432.3 205.6 L434.5 206.9 L436.4 207.8 L438.5 208.4 L440.6 209.2 L442.7 210.2 L444.8 211.7 L446.9 213.1 L449.0 214.4 L451.0 215.5 L453.1 216.2 L455.2 217.0 L457.3 218.1 L459.3 218.9 L461.4 220.1 L463.6 221.0 L465.6 221.9 L467.7 223.2 L469.7 223.7 L471.8 225.1 L474.0 226.1 L476.0 227.1 L478.0 228.7 L480.2 229.8 L482.2 230.9 L484.3 231.5 L486.3 232.7 L488.5 233.9 L490.5 235.2 L492.6 235.9 L494.7 236.5 L496.8 238.0 L498.9 238.7 L501.0 239.4 L503.0 240.9 L505.1 242.6 L507.2 244.2 L509.2 245.1 L511.3 246.0 L513.4 246.9 L515.5 248.9 L517.6 249.9 L519.6 250.9 L521.7 253.1 L523.8 254.3 L525.9 255.5 L528.0 256.7 L530.0 258.0 L532.1 259.4 L534.2 260.8 L536.3 262.2 L538.3 263.8 L540.4 265.4 L542.5 265.4 L544.5 267.1 L546.6 268.8 L548.7 270.7 L550.8 272.7 L552.9 272.7 L555.0 274.8 L557.0 277.1 L559.1 279.6 L561.2 279.6 L563.3 282.2 L565.4 282.2 L567.4 285.1 L569.5 288.2 L571.6 288.2 L573.6 291.7 L575.7 291.7 L577.8 291.7 L579.9 295.5 L582.0 295.5 L584.0 299.9 L586.1 299.9 L588.2 299.9 L590.3 305.0 L592.4 305.0 L594.4 305.0 L596.5 311.0 L598.6 311.0 L600.7 311.0 L602.7 311.0 L604.8 318.4 L606.9 318.4 L609.0 318.4 L611.1 318.4 L613.1 327.8 L615.2 327.8 L617.3 327.8 L619.4 327.8 L621.4 327.8 L623.5 327.8 L625.6 341.2 L627.7 341.2 L629.7 341.2 L631.8 341.2 L633.9 341.2 L636.0 341.2 L638.1 341.2 L640.1 341.2 L642.2 364.0 L644.3 364.0 L646.4 364.0 L648.4 364.0 L650.5 364.0 L652.6 364.0 L654.7 364.0 L656.7 364.0 L658.8 364.0 L660.9 364.0 L663.0 364.0 L665.1 364.0 L667.1 364.0 L669.1 364.0" fill="none" stroke="#1baf7a" stroke-width="2" stroke-linejoin="round"/><line x1="334.79999999999995" x2="354.79999999999995" y1="426" y2="426" stroke="#1baf7a" stroke-width="3"/><text x="360.79999999999995" y="430" font-size="12" fill="#1d2333">C Stop words removed</text><path d="M70.0 85.5 L113.8 97.0 L139.4 103.5 L157.5 119.2 L171.6 120.4 L183.1 120.9 L192.9 123.1 L201.3 125.2 L208.8 126.0 L215.4 126.1 L221.4 127.5 L226.9 128.2 L232.0 128.3 L236.7 128.3 L241.0 130.4 L245.1 132.8 L248.9 133.5 L252.5 134.6 L255.9 135.6 L259.2 136.1 L262.3 136.9 L265.2 137.1 L268.0 137.4 L270.7 138.4 L273.3 139.2 L275.7 141.2 L278.1 143.2 L280.4 143.7 L282.6 143.8 L284.8 144.3 L286.9 144.6 L288.9 145.1 L290.8 147.7 L292.7 147.9 L294.5 148.5 L296.3 148.9 L298.0 149.2 L299.7 149.2 L301.3 149.2 L302.9 150.2 L304.5 152.7 L306.0 152.9 L307.5 153.6 L309.0 154.1 L310.4 154.4 L311.8 154.6 L313.1 155.2 L314.5 155.4 L315.8 156.0 L317.0 156.1 L318.3 156.1 L319.5 156.4 L320.7 156.5 L321.9 158.4 L323.1 159.1 L324.2 159.4 L325.3 160.3 L326.4 160.3 L327.5 161.6 L328.6 161.6 L330.6 162.5 L332.6 163.0 L334.6 163.2 L336.5 163.5 L338.3 163.6 L340.9 165.3 L342.6 166.1 L345.1 166.5 L346.7 167.2 L349.0 167.7 L351.3 168.6 L353.5 169.2 L355.5 169.7 L357.6 169.9 L359.5 170.5 L361.4 171.1 L363.3 172.1 L365.7 173.0 L368.0 174.7 L369.6 175.1 L371.8 175.6 L373.9 177.1 L375.9 178.0 L378.3 179.2 L380.2 179.7 L382.5 180.6 L384.3 180.9 L386.4 181.8 L388.5 182.8 L390.5 183.7 L392.8 184.1 L394.7 184.8 L396.9 186.4 L399.0 186.7 L401.0 187.5 L403.3 188.9 L405.2 189.4 L407.4 190.1 L409.4 191.3 L411.5 192.9 L413.7 193.8 L415.6 194.5 L417.7 195.1 L419.9 195.9 L421.9 196.9 L424.0 198.4 L426.1 199.5 L428.0 200.4 L430.2 201.8 L432.3 203.0 L434.5 203.7 L436.4 204.8 L438.5 205.8 L440.6 206.7 L442.7 207.8 L444.8 208.4 L446.9 209.2 L449.0 210.5 L451.0 211.4 L453.1 213.4 L455.2 214.4 L457.3 215.1 L459.3 216.2 L461.4 217.0 L463.6 218.1 L465.6 219.3 L467.7 221.0 L469.7 222.7 L471.8 223.7 L474.0 225.1 L476.0 226.1 L478.0 227.6 L480.2 229.2 L482.2 230.9 L484.3 232.1 L486.3 233.3 L488.5 234.6 L490.5 235.9 L492.6 236.5 L494.7 238.0 L496.8 238.7 L498.9 240.2 L501.0 240.9 L503.0 242.6 L505.1 243.4 L507.2 245.1 L509.2 246.9 L511.3 248.9 L513.4 249.9 L515.5 252.0 L517.6 253.1 L519.6 254.3 L521.7 256.7 L523.8 258.0 L525.9 259.4 L528.0 260.8 L530.0 263.8 L532.1 265.4 L534.2 267.1 L536.3 268.8 L538.3 270.7 L540.4 270.7 L542.5 272.7 L544.5 274.8 L546.6 277.1 L548.7 279.6 L550.8 282.2 L552.9 282.2 L555.0 285.1 L557.0 288.2 L559.1 288.2 L561.2 291.7 L563.3 291.7 L565.4 295.5 L567.4 295.5 L569.5 299.9 L571.6 299.9 L573.6 299.9 L575.7 305.0 L577.8 305.0 L579.9 305.0 L582.0 311.0 L584.0 311.0 L586.1 311.0 L588.2 318.4 L590.3 318.4 L592.4 318.4 L594.4 318.4 L596.5 327.8 L598.6 327.8 L600.7 327.8 L602.7 327.8 L604.8 327.8 L606.9 341.2 L609.0 341.2 L611.1 341.2 L613.1 341.2 L615.2 341.2 L617.3 341.2 L619.4 341.2 L621.4 341.2 L623.5 364.0 L625.6 364.0 L627.7 364.0 L629.7 364.0 L631.8 364.0 L633.9 364.0 L636.0 364.0 L638.1 364.0 L640.1 364.0 L642.2 364.0 L644.3 364.0 L646.4 364.0 L648.4 364.0 L649.1 364.0" fill="none" stroke="#eda100" stroke-width="2" stroke-linejoin="round"/><line x1="506.79999999999995" x2="526.8" y1="426" y2="426" stroke="#eda100" stroke-width="3"/><text x="532.8" y="430" font-size="12" fill="#1d2333">D Stemming</text></svg>